<?xml version="1.0" encoding="UTF-8" standalone="no"?>
<svg
   xmlns:dc="http://purl.org/dc/elements/1.1/"
   xmlns:cc="http://creativecommons.org/ns#"
   xmlns:rdf="http://www.w3.org/1999/02/22-rdf-syntax-ns#"
   xmlns:svg="http://www.w3.org/2000/svg"
   xmlns="http://www.w3.org/2000/svg"
   version="1.1"
   id="svg2"
   viewBox="0 0 853.19976 311.40901"
   width="240.79193mm"
   height="87.886543mm">
  <defs
     id="defs8" />
  <metadata
     id="metadata4">
    <rdf:RDF>
      <cc:Work
         rdf:about="">
        <dc:format>image/svg+xml</dc:format>
        <dc:type
           rdf:resource="http://purl.org/dc/dcmitype/StillImage" />
        <dc:title></dc:title>
      </cc:Work>
    </rdf:RDF>
  </metadata>
  <g
     id="g9934"
     transform="translate(-361.39131,-533.61691)">
    <path
       id="rect3665"
       style="opacity:1;fill:#c98ea8;fill-opacity:1;stroke:none;stroke-width:1;stroke-linecap:butt;stroke-linejoin:miter;stroke-miterlimit:4;stroke-dasharray:none;stroke-dashoffset:0;stroke-opacity:1"
       d="m 368.99177,647.34891 354.68758,0 0,197.67702 -354.68758,0 z m 435.75903,65.6667 a 62.703699,67.020631 0 0 1 -62.7037,67.02062 62.703699,67.020631 0 0 1 -62.70371,-67.02062 62.703699,67.020631 0 0 1 62.70371,-67.02063 62.703699,67.020631 0 0 1 62.7037,67.02063 z m -72.20423,-46.03436 a 62.703699,67.020631 0 0 1 -62.70371,67.02063 62.703699,67.020631 0 0 1 -62.7037,-67.02063 62.703699,67.020631 0 0 1 62.7037,-67.02064 62.703699,67.020631 0 0 1 62.70371,67.02064 z m -64.60381,-43.32649 a 48.769543,52.127157 0 0 1 -48.76954,52.12717 48.769543,52.127157 0 0 1 -48.76955,-52.12717 48.769543,52.127157 0 0 1 48.76955,-52.12715 48.769543,52.127157 0 0 1 48.76954,52.12715 z m -49.40289,1.35394 a 48.769543,52.127157 0 0 1 -48.76954,52.12715 48.769543,52.127157 0 0 1 -48.76954,-52.12715 48.769543,52.127157 0 0 1 48.76954,-52.12715 48.769543,52.127157 0 0 1 48.76954,52.12715 z m -25.33485,-18.95532 a 48.769543,52.127157 0 0 1 -48.76955,52.12716 48.769543,52.127157 0 0 1 -48.76954,-52.12716 48.769543,52.127157 0 0 1 48.76954,-52.12715 48.769543,52.127157 0 0 1 48.76955,52.12715 z m -36.73555,0.67696 a 68.404034,73.113414 0 0 1 -68.40404,73.1134 68.404034,73.113414 0 0 1 -68.40403,-73.1134 68.404034,73.113414 0 0 1 68.40403,-73.11343 68.404034,73.113414 0 0 1 68.40404,73.11343 z m -97.53907,33.17184 a 48.769543,52.127157 0 0 1 -48.76954,52.12715 48.769543,52.127157 0 0 1 -48.76955,-52.12715 48.769543,52.127157 0 0 1 48.76955,-52.12716 48.769543,52.127157 0 0 1 48.76954,52.12716 z" />
    <g
       id="g3698"
       transform="matrix(1.1363044,0,0,1.214535,51.722588,-173.47696)">
      <circle
         r="28.984552"
         cy="669.79578"
         cx="761.40186"
         id="path3678"
         style="opacity:1;fill:#c98ea8;fill-opacity:1;stroke:none;stroke-width:1;stroke-linecap:butt;stroke-linejoin:miter;stroke-miterlimit:4;stroke-dasharray:none;stroke-dashoffset:0;stroke-opacity:1" />
      <circle
         style="opacity:1;fill:#c98ea8;fill-opacity:1;stroke:none;stroke-width:1;stroke-linecap:butt;stroke-linejoin:miter;stroke-miterlimit:4;stroke-dasharray:none;stroke-dashoffset:0;stroke-opacity:1"
         id="circle3680"
         cx="788.15686"
         cy="655.30347"
         r="33.443714" />
      <circle
         style="opacity:1;fill:#c98ea8;fill-opacity:1;stroke:none;stroke-width:1;stroke-linecap:butt;stroke-linejoin:miter;stroke-miterlimit:4;stroke-dasharray:none;stroke-dashoffset:0;stroke-opacity:1"
         id="circle3682"
         cx="827.1745"
         cy="670.91058"
         r="28.984552" />
      <circle
         style="opacity:1;fill:#c98ea8;fill-opacity:1;stroke:none;stroke-width:1;stroke-linecap:butt;stroke-linejoin:miter;stroke-miterlimit:4;stroke-dasharray:none;stroke-dashoffset:0;stroke-opacity:1"
         id="circle3686"
         cx="877.34009"
         cy="668.68097"
         r="28.984552" />
      <circle
         r="33.443714"
         cy="684.28802"
         cx="914.12817"
         id="circle3688"
         style="opacity:1;fill:#c98ea8;fill-opacity:1;stroke:none;stroke-width:1;stroke-linecap:butt;stroke-linejoin:miter;stroke-miterlimit:4;stroke-dasharray:none;stroke-dashoffset:0;stroke-opacity:1" />
      <circle
         r="33.443714"
         cy="668.68097"
         cx="955.37543"
         id="circle3692"
         style="opacity:1;fill:#c98ea8;fill-opacity:1;stroke:none;stroke-width:1;stroke-linecap:butt;stroke-linejoin:miter;stroke-miterlimit:4;stroke-dasharray:none;stroke-dashoffset:0;stroke-opacity:1" />
      <circle
         style="opacity:1;fill:#c98ea8;fill-opacity:1;stroke:none;stroke-width:1;stroke-linecap:butt;stroke-linejoin:miter;stroke-miterlimit:4;stroke-dasharray:none;stroke-dashoffset:0;stroke-opacity:1"
         id="circle3694"
         cx="989.9339"
         cy="644.15558"
         r="33.443714" />
      <rect
         y="659.7627"
         x="746.90961"
         height="131.54527"
         width="267.54971"
         id="rect3696"
         style="opacity:1;fill:#c98ea8;fill-opacity:1;stroke:none;stroke-width:1;stroke-linecap:butt;stroke-linejoin:miter;stroke-miterlimit:4;stroke-dasharray:none;stroke-dashoffset:0;stroke-opacity:1" />
    </g>
  </g>
</svg>
