<?xml version="1.0" encoding="UTF-8" standalone="no"?>
<svg
   xmlns:dc="http://purl.org/dc/elements/1.1/"
   xmlns:cc="http://creativecommons.org/ns#"
   xmlns:rdf="http://www.w3.org/1999/02/22-rdf-syntax-ns#"
   xmlns:svg="http://www.w3.org/2000/svg"
   xmlns="http://www.w3.org/2000/svg"
   version="1.1"
   id="svg2"
   viewBox="0 0 41.192536 115"
   width="41.192535"
   height="115">
  <defs
     id="defs8">
    <filter
       id="filter8771"
       style="color-interpolation-filters:sRGB">
      <feColorMatrix
         id="feColorMatrix8773"
         values="0.21 0.72 0.072 0 0 0.21 0.72 0.072 0 0 0.21 0.72 0.072 0 0 0 0 0 1 0 " />
    </filter>
    <clipPath
       id="clipPath6407"
       clipPathUnits="userSpaceOnUse">
      <path
         id="path6409"
         d="m 390.066,749.502 55.289,0 0,-307.495 -55.289,0 0,307.495 z" />
    </clipPath>
    <clipPath
       id="clipPath6407-3"
       clipPathUnits="userSpaceOnUse">
      <path
         id="path6409-6"
         d="m 390.066,749.502 55.289,0 0,-307.495 -55.289,0 0,307.495 z" />
    </clipPath>
  </defs>
  <metadata
     id="metadata4">
    <rdf:RDF>
      <cc:Work
         rdf:about="">
        <dc:format>image/svg+xml</dc:format>
        <dc:type
           rdf:resource="http://purl.org/dc/dcmitype/StillImage" />
        <dc:title></dc:title>
      </cc:Work>
    </rdf:RDF>
  </metadata>
  <g
     transform="matrix(0.37395407,0,0,-0.37395407,-125.35,280.29024)"
     id="g8228">
    <g
       transform="translate(352.0576,563.5068)"
       id="g6329">
      <path
         id="path6331"
         style="fill:#ffeac7;fill-opacity:1;fill-rule:nonzero;stroke:none"
         d="m 0,0 c 0,-4.143 -3.358,-7.5 -7.5,-7.5 -4.142,0 -7.5,3.357 -7.5,7.5 l 0,12 c 0,4.143 3.358,7.5 7.5,7.5 C -3.358,19.5 0,16.143 0,12 L 0,0 Z" />
    </g>
    <g
       transform="translate(442.9355,563.5068)"
       id="g6333">
      <path
         id="path6335"
         style="fill:#ffeac7;fill-opacity:1;fill-rule:nonzero;stroke:none"
         d="m 0,0 c 0,-4.143 -3.357,-7.5 -7.5,-7.5 -4.142,0 -7.5,3.357 -7.5,7.5 l 0,12 c 0,4.143 3.358,7.5 7.5,7.5 C -3.357,19.5 0,16.143 0,12 L 0,0 Z" />
    </g>
    <g
       transform="translate(429.0586,664.7378)"
       id="g6337">
      <path
         id="path6339"
         style="fill:#f4f5f4;fill-opacity:1;fill-rule:evenodd;stroke:none"
         d="m 0,0 c -6.633,4.365 -21.493,7.408 -38.775,7.408 -17.199,0 -31.998,-3.013 -38.678,-7.345 -11.265,-6.543 -16.404,-27.589 -16.404,-48.494 l 0,-40.576 20,0 0,40.576 c 0,13.76 4.442,22.33 7.217,26.643 l 0,-74.944 55.482,0 0,73.768 c 3.058,-4.614 7.455,-12.861 7.455,-25.467 l 0,-40.576 20,0 0,40.576 C 16.297,-27.593 11.189,-6.614 0,0" />
    </g>
    <g
       transform="translate(414.3926,702.3379)"
       id="g6341">
      <path
         id="path6343"
         style="fill:#ffeac7;fill-opacity:1;fill-rule:evenodd;stroke:none"
         d="m 0,0 c 0,-13.439 -10.597,-24.333 -23.667,-24.333 -13.071,0 -23.667,10.894 -23.667,24.333 0,13.439 10.596,24.333 23.667,24.333 C -10.597,24.333 0,13.439 0,0" />
    </g>
    <g
       transform="translate(370.9375,709.1548)"
       id="g6345">
      <path
         id="path6347"
         style="fill:#7d5f54;fill-opacity:1;fill-rule:evenodd;stroke:none"
         d="m 0,0 c 2.426,2.797 5.515,4.746 8.221,7.242 1.869,1.724 5.02,2.009 6.85,0 4.087,-4.488 11.699,-8.555 17.521,-5.016 2.305,1.401 5.248,0.469 6.627,-1.738 0.642,-1.03 2.239,-1.927 3.808,-2.713 C 40.938,9.018 31.331,17.516 19.788,17.516 7.054,17.516 -3.326,7.175 -3.854,-5.784 -2.355,-4.081 -1.451,-1.674 0,0" />
    </g>
    <g
       transform="translate(417.3105,701.5464)"
       id="g6349">
      <path
         id="path6351"
         style="fill:#ffeac7;fill-opacity:1;fill-rule:evenodd;stroke:none"
         d="m 0,0 c 0,-3.524 -1.123,-6.381 -2.507,-6.381 -1.384,0 -2.507,2.857 -2.507,6.381 0,3.524 1.123,6.381 2.507,6.381 C -1.123,6.381 0,3.524 0,0" />
    </g>
    <g
       transform="translate(369.6797,701.5464)"
       id="g6353">
      <path
         id="path6355"
         style="fill:#ffeac7;fill-opacity:1;fill-rule:evenodd;stroke:none"
         d="m 0,0 c 0,-3.524 -1.123,-6.381 -2.507,-6.381 -1.384,0 -2.507,2.857 -2.507,6.381 0,3.524 1.123,6.381 2.507,6.381 C -1.123,6.381 0,3.524 0,0" />
    </g>
    <g
       transform="translate(416.5215,716.4478)"
       id="g6357">
      <path
         id="path6359"
         style="fill:#f5cd7d;fill-opacity:1;fill-rule:evenodd;stroke:none"
         d="m 0,0 c -0.029,0.192 -0.073,0.388 -0.136,0.587 -0.426,1.36 -1.551,5.397 -1.551,6.87 0,11.469 -10.731,20.768 -23.969,20.768 -13.238,0 -23.969,-9.299 -23.969,-20.768 0,-1.292 -1.164,-5.242 -1.982,-7.457 L 0,0 Z" />
    </g>
    <g
       transform="translate(390.5078,737.1382)"
       id="g6361">
      <path
         id="path6363"
         style="fill:#f5cd7d;fill-opacity:1;fill-rule:evenodd;stroke:none"
         d="m 0,0 c 3.412,0 6.196,2.784 6.196,6.196 0,3.413 -2.784,6.197 -6.196,6.197 -3.413,0 -6.196,-2.784 -6.196,-6.197 C -6.196,2.784 -3.413,0 0,0" />
    </g>
    <g
       transform="translate(376.7187,740.6689)"
       id="g6365">
      <path
         id="path6367"
         style="fill:#e3b558;fill-opacity:1;fill-rule:evenodd;stroke:none"
         d="M 0,0 C 2.158,1.37 4.592,2.434 7.214,3.12 7.383,2.694 7.477,2.23 7.477,1.746 l 0,-16.67 c 0,-2.056 -1.682,-3.738 -3.739,-3.738 C 1.681,-18.662 0,-16.98 0,-14.924 L 0,0 Z" />
    </g>
    <g
       transform="translate(397.1514,743.9487)"
       id="g6369">
      <path
         id="path6371"
         style="fill:#e3b558;fill-opacity:1;fill-rule:evenodd;stroke:none"
         d="m 0,0 c 2.581,-0.605 4.989,-1.574 7.146,-2.841 l 0,-15.363 c 0,-2.056 -1.683,-3.738 -3.74,-3.738 -2.055,0 -3.737,1.682 -3.737,3.738 l 0,16.67 c 0,0.546 0.118,1.066 0.331,1.534" />
    </g>
    <g
       transform="translate(412.8457,715.7808)"
       id="g6373">
      <path
         id="path6375"
         style="fill:#e3b558;fill-opacity:1;fill-rule:evenodd;stroke:none"
         d="m 0,0 c 0,-1.104 -0.896,-2 -2,-2 l -41.334,0 c -1.104,0 -2,0.896 -2,2 0,1.104 0.896,2 2,2 L -2,2 C -0.896,2 0,1.104 0,0" />
    </g>
    <g
       transform="translate(418.3545,567.8174)"
       id="g6377">
      <path
         id="path6379"
         style="fill:#0087a1;fill-opacity:1;fill-rule:nonzero;stroke:none"
         d="m 0,0 -0.427,1.448 -55.509,0 0,-5.06 c -13.21,-32.678 -14.741,-94.915 -14.151,-115.565 l 24.99,0.715 c -0.865,30.276 5.209,76.053 14.539,99.014 l 8.097,0 c 9.013,-23.271 14.048,-69.026 13.19,-99.014 l 24.991,-0.715 C 16.332,-97.737 14.657,-31.472 0,0" />
    </g>
    <g
       transform="translate(376.6035,442.0068)"
       id="g6381">
      <path
         id="path6383"
         style="fill:#514b3f;fill-opacity:1;fill-rule:nonzero;stroke:none"
         d="m 0,0 c 0.271,0.841 0.422,1.736 0.422,2.668 0,4.786 -3.88,8.666 -8.666,8.666 l -14.969,0 c -4.787,0 -8.667,-3.88 -8.667,-8.666 0,-0.932 0.151,-1.827 0.423,-2.668 L 0,0 Z" />
    </g>
    <g
       transform="translate(437.9365,442.0068)"
       id="g6385">
      <path
         id="path6387"
         style="fill:#514b3f;fill-opacity:1;fill-rule:nonzero;stroke:none"
         d="m 0,0 c 0.272,0.841 0.423,1.736 0.423,2.668 0,4.786 -3.881,8.666 -8.667,8.666 l -14.969,0 c -4.786,0 -8.667,-3.88 -8.667,-8.666 0,-0.932 0.151,-1.827 0.424,-2.668 L 0,0 Z" />
    </g>
    <g
       transform="translate(380.0137,671.7935)"
       id="g6389">
      <path
         id="path6391"
         style="fill:#ffeac7;fill-opacity:1;fill-rule:nonzero;stroke:none"
         d="m 0,0 c -0.014,-0.157 0.062,-0.649 0.062,-0.808 0,-4.142 4.509,-7.5 10.072,-7.5 5.561,0 10.085,4.121 10.085,8.263 0,0.002 -4.962,0.382 -9.949,0.398 C 5.231,0.368 0.168,0.017 0,0" />
    </g>
    <path
       id="path6393"
       style="fill:#e0b18d;fill-opacity:1;fill-rule:nonzero;stroke:none"
       d="m 420.391,564.009 -59.334,0 0,10.666 59.334,0 0,-10.666 z" />
    <path
       id="path6395"
       style="fill:none;stroke:#563a3e;stroke-width:2;stroke-linecap:butt;stroke-linejoin:miter;stroke-miterlimit:10;stroke-dasharray:none;stroke-opacity:1"
       d="m 397.439,563.09 -12.647,0 0,12.964 12.647,0 0,-12.964 z" />
    <path
       id="path6397"
       style="fill:none;stroke:#563a3e;stroke-width:2;stroke-linecap:butt;stroke-linejoin:miter;stroke-miterlimit:10;stroke-dasharray:none;stroke-opacity:1"
       d="m 398.703,568.939 -4.584,0 0,1.265 4.584,0 0,-1.265 z" />
    <g
       transform="translate(395.6055,646.7559)"
       id="g6399">
      <path
         id="path6401"
         style="fill:#cecece;fill-opacity:1;fill-rule:nonzero;stroke:none"
         d="m 0,0 0,-7.489 c 0,-2.835 2.299,-5.134 5.134,-5.134 l 5.159,0 c 2.836,0 5.135,2.299 5.135,5.134 L 15.428,0 0,0 Z" />
    </g>
    <g
       id="g6403">
      <g
         id="g6405" />
      <g
         id="g6411">
        <g
           style="opacity:0.5"
           id="g6413"
           clip-path="url(#clipPath6407-3)">
          <g
             id="g6415"
             transform="translate(442.9355,563.5068)">
            <path
               id="path6417"
               style="fill:#ffeac7;fill-opacity:1;fill-rule:nonzero;stroke:none"
               d="m 0,0 c 0,-4.143 -3.357,-7.5 -7.5,-7.5 -4.142,0 -7.5,3.357 -7.5,7.5 l 0,12 c 0,4.143 3.358,7.5 7.5,7.5 C -3.357,19.5 0,16.143 0,12 L 0,0 Z" />
          </g>
          <g
             id="g6419"
             transform="translate(429.0586,664.7378)">
            <path
               id="path6421"
               style="fill:#f4f5f4;fill-opacity:1;fill-rule:evenodd;stroke:none"
               d="m 0,0 c -6.531,4.299 -21.048,7.309 -37.992,7.399 l 0,-104.131 26.834,0 0,73.768 c 3.058,-4.614 7.455,-12.861 7.455,-25.467 l 0,-40.576 20,0 0,40.576 C 16.297,-27.593 11.189,-6.614 0,0" />
          </g>
          <g
             id="g6423"
             transform="translate(391.0664,726.6621)">
            <path
               id="path6425"
               style="fill:#ffeac7;fill-opacity:1;fill-rule:evenodd;stroke:none"
               d="m 0,0 0,-48.648 c 12.912,0.188 23.326,11.002 23.326,24.324 C 23.326,-11.003 12.912,-0.188 0,0" />
          </g>
          <g
             id="g6427"
             transform="translate(391.0664,726.6553)">
            <path
               id="path6429"
               style="fill:#7d5f54;fill-opacity:1;fill-rule:evenodd;stroke:none"
               d="m 0,0 0,-14.326 c 3.899,-2.278 8.577,-3.311 12.463,-0.949 2.306,1.401 5.248,0.469 6.627,-1.738 0.642,-1.029 2.239,-1.926 3.808,-2.713 C 20.83,-8.595 11.39,-0.167 0,0" />
          </g>
          <g
             id="g6431"
             transform="translate(417.3105,701.5464)">
            <path
               id="path6433"
               style="fill:#ffeac7;fill-opacity:1;fill-rule:evenodd;stroke:none"
               d="m 0,0 c 0,-3.524 -1.123,-6.381 -2.507,-6.381 -1.384,0 -2.507,2.857 -2.507,6.381 0,3.524 1.123,6.381 2.507,6.381 C -1.123,6.381 0,3.524 0,0" />
          </g>
          <g
             id="g6435"
             transform="translate(391.0664,716.4478)">
            <path
               id="path6437"
               style="fill:#f5cd7d;fill-opacity:1;fill-rule:evenodd;stroke:none"
               d="m 0,0 25.455,0 c -0.029,0.192 -0.073,0.388 -0.136,0.587 -0.426,1.36 -1.551,5.397 -1.551,6.87 0,11.41 -10.622,20.669 -23.768,20.764 L 0,0 Z" />
          </g>
          <g
             id="g6439"
             transform="translate(391.0664,749.5024)">
            <path
               id="path6441"
               style="fill:#f5cd7d;fill-opacity:1;fill-rule:evenodd;stroke:none"
               d="m 0,0 0,-12.336 c 3.152,0.285 5.638,2.944 5.638,6.168 C 5.638,-2.943 3.152,-0.285 0,0" />
          </g>
          <g
             id="g6443"
             transform="translate(397.1514,743.9487)">
            <path
               id="path6445"
               style="fill:#e3b558;fill-opacity:1;fill-rule:evenodd;stroke:none"
               d="m 0,0 c 2.581,-0.605 4.989,-1.574 7.146,-2.841 l 0,-15.363 c 0,-2.056 -1.683,-3.738 -3.74,-3.738 -2.055,0 -3.737,1.682 -3.737,3.738 l 0,16.67 c 0,0.546 0.118,1.066 0.331,1.534" />
          </g>
          <g
             id="g6447"
             transform="translate(410.8457,717.7808)">
            <path
               id="path6449"
               style="fill:#e3b558;fill-opacity:1;fill-rule:evenodd;stroke:none"
               d="m 0,0 -19.779,0 0,-4 L 0,-4 c 1.104,0 2,0.896 2,2 0,1.104 -0.896,2 -2,2" />
          </g>
          <g
             id="g6451"
             transform="translate(418.3545,567.8174)">
            <path
               id="path6453"
               style="fill:#0087a1;fill-opacity:1;fill-rule:nonzero;stroke:none"
               d="m 0,0 -0.427,1.448 -26.861,0 0,-20.896 4.827,0 c 9.013,-23.271 14.048,-69.026 13.19,-99.014 l 24.991,-0.715 C 16.332,-97.737 14.657,-31.472 0,0" />
          </g>
          <g
             id="g6455"
             transform="translate(437.9365,442.0068)">
            <path
               id="path6457"
               style="fill:#514b3f;fill-opacity:1;fill-rule:nonzero;stroke:none"
               d="m 0,0 c 0.272,0.841 0.423,1.736 0.423,2.668 0,4.786 -3.881,8.666 -8.667,8.666 l -14.969,0 c -4.786,0 -8.667,-3.88 -8.667,-8.666 0,-0.932 0.151,-1.827 0.424,-2.668 L 0,0 Z" />
          </g>
          <g
             id="g6459"
             transform="translate(391.0664,672.1401)">
            <path
               id="path6461"
               style="fill:#ffeac7;fill-opacity:1;fill-rule:nonzero;stroke:none"
               d="m 0,0 0,-8.612 c 5.132,0.422 9.166,4.309 9.166,8.22 C 9.166,-0.39 4.71,-0.049 0,0" />
          </g>
          <path
             id="path6463"
             style="fill:#e0b18d;fill-opacity:1;fill-rule:nonzero;stroke:none"
             d="m 391.066,564.009 29.324,0 0,10.666 -29.324,0 0,-10.666 z" />
          <path
             id="path6465"
             style="fill:none;stroke:#563a3e;stroke-width:2;stroke-linecap:butt;stroke-linejoin:miter;stroke-miterlimit:10;stroke-dasharray:none;stroke-opacity:1"
             d="m 391.066,563.09 6.373,0 0,12.964 -6.373,0 0,-12.964 z" />
          <path
             id="path6467"
             style="fill:none;stroke:#563a3e;stroke-width:2;stroke-linecap:butt;stroke-linejoin:miter;stroke-miterlimit:10;stroke-dasharray:none;stroke-opacity:1"
             d="m 398.703,568.939 -4.584,0 0,1.265 4.584,0 0,-1.265 z" />
          <g
             id="g6469"
             transform="translate(395.6055,646.7559)">
            <path
               id="path6471"
               style="fill:#cecece;fill-opacity:1;fill-rule:nonzero;stroke:none"
               d="m 0,0 0,-7.489 c 0,-2.835 2.299,-5.134 5.134,-5.134 l 5.159,0 c 2.836,0 5.135,2.299 5.135,5.134 L 15.428,0 0,0 Z" />
          </g>
        </g>
      </g>
    </g>
  </g>
</svg>
